<?xml version="1.0" standalone="no"?>
<!DOCTYPE svg PUBLIC "-//W3C//DTD SVG 20010904//EN"
 "http://www.w3.org/TR/2001/REC-SVG-20010904/DTD/svg10.dtd">
<svg version="1.0" xmlns="http://www.w3.org/2000/svg"
 width="510.000000pt" height="509.000000pt" viewBox="0 0 510.000000 509.000000"
 preserveAspectRatio="xMidYMid meet">

<g transform="translate(0.000000,509.000000) scale(0.100000,-0.100000)"
fill="#007BA7" stroke="none">

<path d="M3445 3930 c-66 -13 -141 -47 -299 -134 -226 -125 -372 -195 -499
-240 -17 -5 -13 -12 27 -57 25 -27 54 -73 64 -102 l20 -52 123 -57 c68 -31
131 -57 140 -57 8 -1 41 13 72 30 79 43 146 48 237 19 l70 -23 43 29 c62 42
147 133 185 195 62 105 95 244 78 333 -18 97 -123 143 -261 116z"/>
<path d="M2076 3700 c-49 -15 -99 -57 -161 -136 -33 -42 -82 -104 -108 -138
-60 -77 -459 -491 -587 -610 -167 -155 -264 -211 -664 -383 -83 -35 -176 -80
-208 -99 -78 -48 -147 -120 -189 -196 -32 -60 -34 -68 -34 -160 1 -54 -2 -98
-6 -98 -4 0 -15 20 -25 45 -9 25 -20 45 -24 45 -16 0 -32 -104 -28 -179 10
-169 112 -268 372 -360 136 -48 436 -101 571 -101 16 0 33 21 73 91 29 50 52
94 52 98 0 4 -64 13 -142 20 -281 24 -465 68 -633 151 -74 37 -177 121 -164
135 3 2 26 -9 52 -25 26 -16 47 -27 47 -24 0 3 -16 24 -35 47 -19 22 -33 42
-31 44 2 3 37 -12 77 -32 195 -98 492 -163 876 -190 l92 -6 78 54 c43 30 121
78 174 106 l97 52 -14 52 c-7 29 -32 103 -54 165 -39 110 -55 222 -31 222 29
0 91 -127 136 -283 l38 -127 111 58 110 59 11 64 c11 66 40 129 64 137 11 4
12 -2 8 -24 -20 -91 -27 -128 -23 -132 8 -8 127 82 227 170 166 149 407 423
605 688 113 152 162 222 166 239 3 13 -185 103 -327 156 -105 39 -174 45 -245
20 -48 -17 -116 -66 -145 -103 -18 -25 -18 -26 9 -75 24 -41 26 -53 17 -73
-18 -39 -52 -31 -123 31 -96 85 -192 127 -365 161 -55 11 1 74 71 81 l46 6 61
101 c71 118 116 177 173 228 l41 38 -30 -1 c-16 0 -43 -5 -59 -9z m-208 -485
c3 -3 -5 -16 -17 -29 l-22 -23 113 -62 c130 -72 178 -114 208 -182 20 -47 19
-99 -1 -99 -4 0 -37 25 -71 56 -83 74 -133 108 -221 149 -73 35 -173 65 -214
65 -29 0 -29 12 0 45 16 20 35 28 68 32 37 4 48 11 62 35 16 27 21 30 54 25
19 -4 38 -9 41 -12z m640 -10 c17 -14 33 -39 37 -55 13 -57 -46 -130 -105
-130 -35 0 -76 27 -90 59 -42 102 76 195 158 126z m-806 -146 c20 -11 20 -11
0 -32 -37 -42 -36 -44 75 -103 l107 -57 28 33 c36 44 48 31 16 -18 l-26 -38
29 -32 c53 -59 47 -112 -12 -112 -21 0 -49 17 -99 58 -100 85 -207 137 -342
166 -61 14 -8 71 73 82 39 5 54 13 70 35 21 31 47 36 81 18z m928 -27 c0 -12
-60 -82 -71 -82 -16 0 -10 20 17 56 24 31 54 46 54 26z m-371 -106 c31 -33 40
-106 17 -141 -9 -13 -30 -32 -48 -41 -62 -32 -148 20 -148 90 l0 31 31 -38
c36 -43 60 -47 94 -12 32 31 31 51 0 98 l-26 37 29 0 c17 0 37 -10 51 -24z
m-719 -36 c12 -8 10 -14 -15 -42 -17 -18 -37 -38 -45 -45 -13 -11 -13 -12 0
-13 24 0 140 -58 192 -95 l47 -34 36 41 c41 49 46 41 9 -14 l-27 -38 37 -41
c46 -50 48 -98 5 -113 -23 -8 -35 -1 -105 58 -43 36 -115 84 -159 106 -70 35
-111 49 -228 74 -35 8 -33 31 6 60 29 21 78 26 132 12 24 -6 28 -5 18 5 -19
19 -16 33 12 63 25 27 58 33 85 16z m925 -20 c9 -15 -55 -94 -67 -82 -6 6 1
25 19 50 29 43 38 49 48 32z m-118 -166 c2 -6 -12 -28 -31 -50 -41 -46 -50
-25 -13 31 21 33 37 40 44 19z m-987 -4 c0 -6 -18 -26 -40 -46 -22 -20 -40
-40 -40 -45 0 -5 24 -21 53 -35 28 -15 89 -50 133 -79 l82 -53 38 54 c36 49
64 69 64 44 0 -6 -18 -35 -41 -65 l-40 -53 40 -54 c34 -44 41 -61 41 -99 0
-74 -20 -71 -103 12 -40 40 -94 89 -122 110 -65 49 -194 113 -270 134 -33 10
-69 23 -80 31 -19 14 -19 15 1 34 10 11 46 25 79 32 50 9 66 18 93 50 28 32
40 38 73 38 21 0 39 -5 39 -10z m598 -90 c24 -43 26 -50 14 -50 -8 0 -52 71
-52 84 0 17 17 2 38 -34z m107 -1 c40 -76 -4 -159 -83 -159 -73 0 -128 77
-103 144 l11 29 28 -54 c30 -60 57 -72 87 -39 16 17 17 26 8 65 -6 24 -8 46
-6 49 11 11 45 -10 58 -35z m145 -106 c-1 -5 -14 -24 -30 -43 -27 -31 -30 -32
-30 -12 0 12 9 31 20 42 20 20 40 26 40 13z m-419 -131 c15 -39 -7 -32 -31 11
l-24 42 24 -16 c13 -8 27 -25 31 -37z m62 18 c34 -27 44 -78 23 -118 -20 -38
-44 -52 -91 -52 -70 0 -110 67 -89 148 9 34 20 27 34 -23 17 -61 42 -74 75
-41 30 30 31 36 5 69 -11 14 -20 28 -20 31 0 14 39 5 63 -14z m214 -77 c-34
-46 -56 -56 -49 -23 5 22 53 70 70 70 9 0 2 -17 -21 -47z m-256 -252 c22 -18
22 -19 6 -45 -20 -30 -33 -32 -59 -9 -21 19 -23 44 -6 61 17 17 32 15 59 -7z"/>
<path d="M2412 3158 c-16 -16 -15 -53 3 -68 33 -27 84 23 63 63 -10 20 -48 23
-66 5z"/>
<path d="M2225 3636 c-44 -20 -84 -67 -169 -199 l-75 -117 85 -43 86 -43 63
63 c89 89 154 118 265 118 47 0 100 -4 119 -9 l33 -8 -30 43 c-102 148 -280
240 -377 195z"/>
<path d="M3761 3518 c-29 -87 -87 -172 -175 -256 -59 -56 -70 -71 -56 -75 19
-5 277 88 298 107 10 10 8 38 -14 147 -14 74 -27 135 -29 137 -2 2 -12 -25
-24 -60z"/>
<path d="M4470 3506 c-86 -25 -124 -44 -345 -169 -169 -96 -401 -211 -448
-222 l-27 -7 49 -53 c26 -30 62 -79 79 -109 38 -67 82 -95 206 -130 152 -45
314 -33 446 32 81 39 208 169 253 258 73 144 92 286 49 356 -43 69 -131 84
-262 44z"/>
<path d="M4808 3133 c-84 -237 -294 -405 -557 -443 -109 -16 -187 -2 -404 72
-175 59 -181 60 -265 56 -65 -3 -98 -10 -131 -27 -50 -26 -141 -107 -141 -126
0 -7 11 -33 25 -56 27 -48 31 -79 13 -97 -22 -22 -54 -12 -93 29 -77 78 -191
134 -328 159 -37 7 -70 16 -73 21 -9 15 52 69 78 69 13 0 28 4 34 8 6 4 51 72
100 151 49 79 107 164 128 188 l40 45 -35 -7 c-86 -19 -139 -64 -230 -198 -98
-144 -172 -238 -333 -427 -346 -404 -606 -619 -936 -777 -321 -153 -420 -225
-482 -351 -30 -60 -33 -73 -32 -159 0 -51 -3 -93 -6 -93 -4 0 -15 21 -25 47
l-18 47 -15 -39 c-8 -22 -15 -76 -16 -120 -1 -72 3 -88 31 -146 59 -118 169
-199 363 -263 215 -71 434 -109 731 -126 437 -26 826 38 1219 202 214 88 332
160 960 578 511 341 566 385 618 489 25 53 27 65 30 215 2 88 1 185 -3 215
l-8 56 -14 -35 c-33 -79 -38 -83 -413 -351 -178 -128 -670 -468 -860 -596
-194 -129 -402 -232 -592 -292 -118 -37 -316 -78 -418 -86 -41 -3 -102 -8
-135 -10 -83 -7 -50 10 49 25 250 38 555 142 796 273 147 80 610 386 841 557
21 15 29 33 39 87 40 234 128 381 449 752 109 127 116 133 119 105 5 -38 -14
-100 -43 -145 -13 -20 -73 -95 -132 -167 -129 -153 -199 -253 -246 -348 -32
-62 -81 -203 -75 -210 5 -5 295 202 410 293 157 122 150 107 145 343 -4 168
-9 215 -36 341 -17 80 -46 191 -64 248 l-32 102 -27 -78z m-1212 -438 c54 -37
55 -125 3 -169 -52 -44 -126 -30 -154 29 -19 41 -19 49 1 91 27 58 103 82 150
49z m-646 -27 c0 -6 -10 -22 -21 -34 l-22 -23 108 -51 109 -50 33 32 c41 40
50 33 18 -15 -29 -41 -31 -53 -11 -60 20 -8 78 -131 74 -158 -4 -31 -23 -34
-47 -10 -12 12 -21 17 -21 12 0 -12 59 -61 74 -61 6 0 22 7 34 16 28 19 29 58
2 102 -25 41 -25 42 5 42 48 0 91 -68 80 -127 -13 -69 -109 -107 -170 -67 -26
17 -50 76 -41 99 8 21 -86 99 -176 146 -46 23 -112 47 -164 59 -47 10 -88 21
-91 24 -13 12 8 33 60 59 30 16 65 39 78 53 24 26 89 35 89 12z m1648 -31
c-58 -52 -138 -101 -220 -135 -74 -30 -210 -41 -285 -23 -52 12 -183 71 -183
82 0 3 30 -3 68 -13 90 -27 279 -29 372 -4 71 19 241 98 260 122 7 8 18 14 24
14 6 -1 -10 -20 -36 -43z m-832 -68 c3 -6 -9 -27 -28 -46 -43 -43 -56 -30 -22
20 26 38 38 45 50 26z m-972 -63 c17 -6 17 -8 -8 -41 l-26 -34 67 -37 c38 -20
83 -45 101 -55 18 -11 37 -19 41 -19 4 0 21 20 39 45 30 43 52 57 52 34 0 -6
-16 -30 -35 -54 l-36 -43 32 -46 c32 -44 32 -46 14 -66 -30 -34 -70 -26 -139
29 -112 89 -232 141 -323 141 -36 0 -38 2 -23 31 13 24 61 49 94 49 15 0 44
16 71 40 26 22 50 39 53 37 4 -2 15 -7 26 -11z m832 -98 c8 -12 -63 -84 -73
-74 -7 7 46 86 58 86 4 0 11 -5 15 -12z m-976 -90 c0 -7 -17 -29 -37 -50 -28
-29 -45 -38 -70 -38 -37 0 -38 2 -22 33 24 47 51 67 91 67 23 0 38 -5 38 -12z
m-79 -114 c164 -48 341 -194 309 -254 -20 -37 -66 -26 -127 30 -85 78 -272
160 -365 160 -37 0 -36 21 3 54 37 31 96 35 180 10z m893 -38 c-29 -36 -54
-47 -54 -23 0 23 60 81 72 69 7 -7 2 -21 -18 -46z m-588 -11 c-10 -19 -29 -44
-42 -56 -21 -19 -24 -20 -30 -6 -9 23 65 122 80 107 7 -7 5 -20 -8 -45z m151
-49 c25 -39 40 -86 26 -86 -7 0 -63 101 -63 115 0 15 18 0 37 -29z m134 -20
c28 -46 24 -89 -12 -131 -27 -30 -37 -35 -76 -35 -64 0 -103 40 -103 104 0 53
12 59 30 17 18 -44 45 -65 75 -57 33 8 47 44 34 88 -5 18 -9 38 -9 44 0 22 42
1 61 -30z m-723 28 c12 -4 22 -10 22 -14 0 -4 -18 -28 -40 -53 l-40 -45 62
-35 c35 -19 91 -49 125 -66 l62 -31 42 55 c23 30 45 52 51 49 9 -6 -5 -32 -49
-92 l-25 -33 45 -48 c45 -48 64 -94 52 -131 -11 -34 -47 -24 -95 25 -51 52
-161 131 -235 167 -52 26 -156 62 -212 73 -45 9 -50 23 -20 52 17 17 40 27 73
31 42 4 55 12 95 54 47 50 50 52 87 42z m2533 -92 c-28 -95 -95 -156 -393
-358 -785 -531 -898 -605 -1048 -679 -203 -102 -469 -177 -730 -206 -134 -15
-496 -14 -665 1 -418 38 -746 148 -889 299 -40 41 -18 39 52 -5 60 -39 59 -34
-12 43 -16 18 -27 35 -24 38 3 4 29 -8 57 -25 69 -43 222 -104 334 -134 171
-46 315 -65 687 -92 124 -8 241 -19 260 -23 l35 -8 -35 -10 c-29 -9 -21 -10
45 -6 448 24 804 148 1206 419 282 190 1020 699 1069 738 55 43 61 44 51 8z
m-1631 1 c0 -15 -48 -68 -55 -61 -8 8 32 68 46 68 5 0 9 -3 9 -7z m-1100 -121
c0 -5 -13 -18 -30 -30 -28 -21 -30 -21 -30 -4 0 10 5 23 12 30 14 14 48 16 48
4z m1010 -3 c0 -19 -39 -77 -57 -83 -27 -11 -27 1 3 49 27 42 54 59 54 34z
m-368 -56 c10 -9 18 -26 18 -37 -1 -19 -3 -18 -25 9 -36 44 -31 63 7 28z m79
-12 c40 -40 40 -89 0 -133 -24 -27 -36 -33 -71 -33 -35 0 -47 6 -71 33 -29 32
-35 63 -23 110 9 32 19 27 34 -18 17 -50 33 -64 65 -56 33 8 42 46 21 87 -20
39 -20 39 0 39 8 0 29 -13 45 -29z m-335 -153 c66 -79 161 -379 179 -565 7
-72 7 -72 -19 -85 -34 -15 -41 -6 -50 66 -14 106 -36 186 -95 349 -44 121 -61
182 -61 218 0 27 4 49 9 49 5 0 21 -15 37 -32z m488 15 c-44 -102 -57 -162
-57 -268 0 -96 11 -192 30 -260 12 -43 -25 10 -45 65 -59 164 -45 356 35 450
27 33 50 40 37 13z m-214 -203 c23 -44 -38 -83 -70 -45 -10 12 -9 20 4 40 20
30 51 32 66 5z m15 -173 c20 -16 15 -61 -9 -70 -33 -13 -74 51 -49 76 11 11
38 8 58 -6z"/>
<path d="M3498 2624 c-25 -55 42 -85 71 -32 13 22 13 29 2 42 -21 25 -60 20
-73 -10z"/>
<path d="M3293 3103 c-39 -22 -51 -37 -151 -194 l-80 -126 87 -40 87 -40 65
67 c44 45 87 77 134 101 65 32 76 34 166 34 l97 0 -19 26 c-10 15 -45 51 -78
82 -95 88 -237 129 -308 90z"/>
</g>
</svg>
