<?xml version="1.0" standalone="no"?>
<!DOCTYPE svg PUBLIC "-//W3C//DTD SVG 20010904//EN"
 "http://www.w3.org/TR/2001/REC-SVG-20010904/DTD/svg10.dtd">
<svg version="1.0" xmlns="http://www.w3.org/2000/svg"
 width="239.000000pt" height="83.000000pt" viewBox="0 0 239.000000 83.000000"
 preserveAspectRatio="xMidYMid meet">

<g transform="translate(0.000000,83.000000) scale(0.100000,-0.100000)"
fill="#000000" stroke="none">
<path d="M471 601 c-11 -7 -16 -43 -19 -145 l-5 -136 87 0 c51 0 86 4 86 10 0
6 -17 11 -37 12 -21 0 -42 2 -48 3 -5 2 -18 3 -27 4 -15 1 -18 10 -18 51 l0
50 48 0 c61 0 89 16 41 24 -19 3 -45 7 -59 8 -27 3 -36 24 -26 64 6 21 12 24
56 24 50 0 74 15 49 31 -18 11 -110 11 -128 0z"/>
<path d="M660 606 c0 -2 15 -37 34 -76 37 -77 37 -81 -6 -151 -31 -52 -33 -59
-15 -59 13 0 48 47 68 92 l12 28 39 -60 c55 -84 81 -81 34 4 -20 35 -36 73
-36 83 0 10 16 43 35 73 38 59 42 70 23 70 -12 0 -26 -18 -73 -94 l-18 -29
-23 39 c-33 58 -54 84 -64 84 -6 0 -10 -2 -10 -4z"/>
<path d="M895 600 c-11 -18 5 -30 40 -30 l33 0 4 -119 c1 -66 6 -122 10 -126
20 -20 28 15 28 126 l0 119 34 0 c38 0 57 17 35 31 -19 12 -176 11 -184 -1z"/>
<path d="M1185 599 c-36 -21 -65 -52 -65 -70 0 -16 24 -40 100 -97 33 -26 37
-39 16 -67 -10 -14 -25 -18 -60 -17 -48 2 -63 -11 -23 -22 65 -17 119 3 131
49 9 37 -8 61 -70 101 -35 22 -54 41 -54 54 0 27 42 52 73 45 22 -6 47 9 35
21 -12 11 -65 13 -83 3z"/>
<path d="M1536 601 c-4 -6 -10 -36 -13 -66 l-6 -55 -67 0 -68 0 -4 55 c-5 53
-12 74 -24 63 -7 -8 -6 -257 2 -270 13 -21 23 18 17 70 l-6 52 76 0 76 0 3
-62 c3 -62 20 -88 32 -46 9 35 7 241 -3 257 -6 9 -10 10 -15 2z"/>
<path d="M1684 590 c-60 -30 -87 -106 -65 -187 16 -59 50 -83 118 -83 47 0 59
4 83 28 75 76 56 210 -36 248 -44 18 -51 18 -100 -6z m107 -39 c54 -55 39
-182 -25 -199 -110 -30 -168 124 -75 202 40 34 64 33 100 -3z"/>
<path d="M1920 465 l0 -145 75 0 c43 0 75 4 75 10 0 6 -15 11 -32 11 -18 1
-42 2 -53 3 -17 1 -20 9 -23 54 l-3 52 45 0 c77 0 67 23 -14 32 -22 3 -25 8
-25 43 l0 40 50 3 c28 2 54 7 59 12 11 11 -58 30 -111 30 l-43 0 0 -145z"/>
<path d="M2184 600 c-28 -11 -53 -47 -49 -68 2 -9 4 -23 4 -29 1 -7 26 -29 56
-49 32 -22 55 -44 55 -55 0 -37 -12 -49 -49 -49 -44 0 -71 -14 -46 -24 61 -23
135 13 135 65 0 32 -46 89 -72 89 -22 0 -61 47 -55 65 8 19 48 35 90 35 20 0
28 3 21 10 -15 15 -66 21 -90 10z"/>
<path d="M176 563 c-8 -48 -8 -191 0 -220 4 -13 13 -23 21 -23 12 0 14 19 11
110 -2 61 -1 110 2 110 3 -1 30 -41 60 -91 53 -88 95 -138 105 -127 3 3 6 47
6 99 2 147 0 181 -11 174 -6 -4 -10 -54 -10 -118 l0 -111 -61 99 c-90 149
-111 166 -123 98z"/>
<path d="M300 120 l-105 -5 100 -6 c131 -7 1688 -7 1830 1 l110 5 -115 7
c-131 9 -1660 7 -1820 -2z"/>
</g>
</svg>
